<?xml version="1.0" encoding="UTF-8"?>
<svg width="17px" height="19px" viewBox="0 0 17 19" version="1.1" xmlns="http://www.w3.org/2000/svg" xmlns:xlink="http://www.w3.org/1999/xlink">
    <!-- Generator: Sketch 51.1 (57501) - http://www.bohemiancoding.com/sketch -->
    <title>Shape</title>
    <desc>Created with Sketch.</desc>
    <defs></defs>
    <g id="Page-1" stroke="none" stroke-width="1" fill="none" fill-rule="evenodd">
        <g id="Gmail-Desktop" transform="translate(-1361.000000, -74.000000)" fill="#6E6E6E">
            <g id="//-secondary-header" transform="translate(0.000000, 60.000000)">
                <g id="select-all" transform="translate(1338.000000, 10.000000)">
                    <g id="settings-icon" transform="translate(21.000000, 3.000000)">
                        <g id="Group">
                            <path d="M17.00125,11.3575 C17.03625,11.0775 17.0625,10.7975 17.0625,10.5 C17.0625,10.2025 17.03625,9.9225 17.00125,9.6425 L18.8475,8.19875 C19.01375,8.0675 19.0575,7.83125 18.9525,7.63875 L17.2025,4.61125 C17.0975,4.41875 16.86125,4.34875 16.66875,4.41875 L14.49,5.29375 C14.035,4.94375 13.545,4.655 13.01125,4.43625 L12.67875,2.1175 C12.6525,1.9075 12.46875,1.75 12.25,1.75 L8.75,1.75 C8.53125,1.75 8.3475,1.9075 8.32125,2.1175 L7.98875,4.43625 C7.455,4.655 6.965,4.9525 6.51,5.29375 L4.33125,4.41875 C4.13,4.34 3.9025,4.41875 3.7975,4.61125 L2.0475,7.63875 C1.93375,7.83125 1.98625,8.0675 2.1525,8.19875 L3.99875,9.6425 C3.96375,9.9225 3.9375,10.21125 3.9375,10.5 C3.9375,10.78875 3.96375,11.0775 3.99875,11.3575 L2.1525,12.80125 C1.98625,12.9325 1.9425,13.16875 2.0475,13.36125 L3.7975,16.38875 C3.9025,16.58125 4.13875,16.65125 4.33125,16.58125 L6.51,15.70625 C6.965,16.05625 7.455,16.345 7.98875,16.56375 L8.32125,18.8825 C8.3475,19.0925 8.53125,19.25 8.75,19.25 L12.25,19.25 C12.46875,19.25 12.6525,19.0925 12.67875,18.8825 L13.01125,16.56375 C13.545,16.345 14.035,16.0475 14.49,15.70625 L16.66875,16.58125 C16.87,16.66 17.0975,16.58125 17.2025,16.38875 L18.9525,13.36125 C19.0575,13.16875 19.01375,12.9325 18.8475,12.80125 L17.00125,11.3575 L17.00125,11.3575 Z M10.5,13.5625 C8.81125,13.5625 7.4375,12.18875 7.4375,10.5 C7.4375,8.81125 8.81125,7.4375 10.5,7.4375 C12.18875,7.4375 13.5625,8.81125 13.5625,10.5 C13.5625,12.18875 12.18875,13.5625 10.5,13.5625 L10.5,13.5625 Z" id="Shape"></path>
                        </g>
                    </g>
                </g>
            </g>
        </g>
    </g>
</svg>