<?xml version="1.0" encoding="UTF-8"?>
<svg width="89px" height="29px" viewBox="0 0 89 29" version="1.1" xmlns="http://www.w3.org/2000/svg" xmlns:xlink="http://www.w3.org/1999/xlink">
    <!-- Generator: Sketch 51.1 (57501) - http://www.bohemiancoding.com/sketch -->
    <title>Google_2015_logo</title>
    <desc>Created with Sketch.</desc>
    <defs></defs>
    <g id="Page-1" stroke="none" stroke-width="1" fill="none" fill-rule="evenodd">
        <g id="Gmail-Desktop" transform="translate(-31.000000, -16.000000)">
            <g id="//-header">
                <g id="Google_2015_logo" transform="translate(31.000000, 16.000000)">
                    <g id="Group">
                        <path d="M38.1546296,15.2024444 C38.1546296,19.3172222 34.8616296,22.3493333 30.8203704,22.3493333 C26.7791111,22.3493333 23.4861111,19.3172222 23.4861111,15.2024444 C23.4861111,11.0586667 26.7791111,8.05555556 30.8203704,8.05555556 C34.8616296,8.05555556 38.1546296,11.0586667 38.1546296,15.2024444 L38.1546296,15.2024444 Z M34.944037,15.2024444 C34.944037,12.6311111 33.0354815,10.8717778 30.8203704,10.8717778 C28.6052593,10.8717778 26.6967037,12.6311111 26.6967037,15.2024444 C26.6967037,17.748 28.6052593,19.5331111 30.8203704,19.5331111 C33.0354815,19.5331111 34.944037,17.7447778 34.944037,15.2024444 L34.944037,15.2024444 Z" id="Shape" fill="#EA4335"></path>
                        <path d="M53.9768519,15.2024444 C53.9768519,19.3172222 50.6838519,22.3493333 46.6425926,22.3493333 C42.6013333,22.3493333 39.3083333,19.3172222 39.3083333,15.2024444 C39.3083333,11.0618889 42.6013333,8.05555556 46.6425926,8.05555556 C50.6838519,8.05555556 53.9768519,11.0586667 53.9768519,15.2024444 L53.9768519,15.2024444 Z M50.7662593,15.2024444 C50.7662593,12.6311111 48.8577037,10.8717778 46.6425926,10.8717778 C44.4274815,10.8717778 42.5189259,12.6311111 42.5189259,15.2024444 C42.5189259,17.748 44.4274815,19.5331111 46.6425926,19.5331111 C48.8577037,19.5331111 50.7662593,17.7447778 50.7662593,15.2024444 L50.7662593,15.2024444 Z" id="Shape" fill="#FBBC05"></path>
                        <path d="M69.1398148,8.48733333 L69.1398148,21.3182222 C69.1398148,26.5962222 65.9555926,28.7518889 62.1912222,28.7518889 C58.6477037,28.7518889 56.515,26.4351111 55.7107037,24.5404444 L58.505963,23.403 C59.0037037,24.5662222 60.2233333,25.9388889 62.1879259,25.9388889 C64.5975185,25.9388889 66.0907407,24.4856667 66.0907407,21.75 L66.0907407,20.7221111 L65.9786667,20.7221111 C65.2600741,21.5888889 63.8756296,22.3461111 62.1285926,22.3461111 C58.473,22.3461111 55.123963,19.2334444 55.123963,15.2282222 C55.123963,11.194 58.473,8.05555556 62.1285926,8.05555556 C63.8723333,8.05555556 65.2567778,8.81277778 65.9786667,9.65377778 L66.0907407,9.65377778 L66.0907407,8.49055556 L69.1398148,8.49055556 L69.1398148,8.48733333 Z M66.3181852,15.2282222 C66.3181852,12.7116667 64.6008148,10.8717778 62.4153704,10.8717778 C60.2002593,10.8717778 58.3444444,12.7116667 58.3444444,15.2282222 C58.3444444,17.719 60.2002593,19.5331111 62.4153704,19.5331111 C64.6008148,19.5331111 66.3181852,17.719 66.3181852,15.2282222 L66.3181852,15.2282222 Z" id="Shape" fill="#4285F4"></path>
                        <polygon id="Shape" fill="#34A853" points="74.1666667 0.966666667 74.1666667 21.9111111 71.0351852 21.9111111 71.0351852 0.966666667"></polygon>
                        <path d="M86.3695556,17.5546667 L88.8615556,19.1786667 C88.0572593,20.3418889 86.119037,22.3461111 82.77,22.3461111 C78.6166667,22.3461111 75.5148519,19.2076667 75.5148519,15.1992222 C75.5148519,10.9491111 78.643037,8.05233333 82.4107037,8.05233333 C86.2047407,8.05233333 88.0605556,11.0038889 88.6670741,12.5988889 L89,13.4108889 L79.2264815,17.3677778 C79.9747407,18.8016667 81.1383333,19.5331111 82.77,19.5331111 C84.404963,19.5331111 85.5388889,18.7468889 86.3695556,17.5546667 L86.3695556,17.5546667 Z M78.6990741,14.9833333 L85.2323333,12.3314444 C84.873037,11.4388889 83.7918519,10.817 82.5194815,10.817 C80.8878148,10.817 78.6166667,12.2251111 78.6990741,14.9833333 L78.6990741,14.9833333 Z" id="Shape" fill="#EA4335"></path>
                        <path d="M11.6326296,13.3432222 L11.6326296,10.3111111 L22.0851852,10.3111111 C22.1873704,10.8395556 22.2401111,11.4646667 22.2401111,12.1413333 C22.2401111,14.4162222 21.6039259,17.2292222 19.5536296,19.2334444 C17.5593704,21.2634444 15.0113333,22.3461111 11.6359259,22.3461111 C5.37955556,22.3461111 0.118666667,17.3645556 0.118666667,11.2487778 C0.118666667,5.133 5.37955556,0.151444444 11.6359259,0.151444444 C15.097037,0.151444444 17.5626667,1.479 19.4151852,3.20933333 L17.2264444,5.34888889 C15.898037,4.13088889 14.0982593,3.18355556 11.6326296,3.18355556 C7.06396296,3.18355556 3.49077778,6.78277778 3.49077778,11.2487778 C3.49077778,15.7147778 7.06396296,19.314 11.6326296,19.314 C14.596,19.314 16.2837037,18.1507778 17.3648889,17.0938889 C18.2417037,16.2367778 18.8185556,15.0123333 19.046,13.34 L11.6326296,13.3432222 L11.6326296,13.3432222 Z" id="Shape" fill="#4285F4"></path>
                    </g>
                </g>
            </g>
        </g>
    </g>
</svg>