<?xml version="1.0" encoding="UTF-8"?>
<svg width="8px" height="10px" viewBox="0 0 8 10" version="1.1" xmlns="http://www.w3.org/2000/svg" xmlns:xlink="http://www.w3.org/1999/xlink">
    <!-- Generator: Sketch 51.1 (57501) - http://www.bohemiancoding.com/sketch -->
    <title>Shape</title>
    <desc>Created with Sketch.</desc>
    <defs></defs>
    <g id="Page-1" stroke="none" stroke-width="1" fill="none" fill-rule="evenodd">
        <g id="Gmail-Desktop" transform="translate(-1346.000000, -25.000000)" fill="#FFFFFF">
            <g id="//-header">
                <g id="notification-icon" transform="translate(1340.000000, 20.000000)">
                    <g id="bell" transform="translate(6.000000, 5.250000)">
                        <path d="M4,9.69230769 C4.55,9.69230769 5,9.25615385 5,8.72307692 L3,8.72307692 C3,9.25615385 3.445,9.69230769 4,9.69230769 L4,9.69230769 Z M7,6.78461538 L7,4.36153846 C7,2.87376923 6.18,1.62830769 4.75,1.29876923 L4.75,0.969230769 C4.75,0.567 4.415,0.242307692 4,0.242307692 C3.585,0.242307692 3.25,0.567 3.25,0.969230769 L3.25,1.29876923 C1.815,1.62830769 1,2.86892308 1,4.36153846 L1,6.78461538 L0,7.75384615 L0,8.23846154 L8,8.23846154 L8,7.75384615 L7,6.78461538 L7,6.78461538 Z" id="Shape"></path>
                    </g>
                </g>
            </g>
        </g>
    </g>
</svg>