<?xml version="1.0" encoding="UTF-8"?>
<svg width="14px" height="14px" viewBox="0 0 14 14" version="1.1" xmlns="http://www.w3.org/2000/svg" xmlns:xlink="http://www.w3.org/1999/xlink">
    <!-- Generator: Sketch 51.1 (57501) - http://www.bohemiancoding.com/sketch -->
    <title>Shape</title>
    <desc>Created with Sketch.</desc>
    <defs></defs>
    <g id="Page-1" stroke="none" stroke-width="1" fill="none" fill-rule="evenodd">
        <g id="Gmail-Desktop" transform="translate(-319.000000, -78.000000)" fill="#878787">
            <g id="//-secondary-header" transform="translate(0.000000, 60.000000)">
                <g id="refresh-icon" transform="translate(316.000000, 15.000000)">
                    <g id="Group">
                        <path d="M14.7083333,5.29166667 C13.5,4.08333333 11.8416667,3.33333333 10,3.33333333 C6.31666667,3.33333333 3.34166667,6.31666667 3.34166667,10 C3.34166667,13.6833333 6.31666667,16.6666667 10,16.6666667 C13.1083333,16.6666667 15.7,14.5416667 16.4416667,11.6666667 L14.7083333,11.6666667 C14.025,13.6083333 12.175,15 10,15 C7.24166667,15 5,12.7583333 5,10 C5,7.24166667 7.24166667,5 10,5 C11.3833333,5 12.6166667,5.575 13.5166667,6.48333333 L10.8333333,9.16666667 L16.6666667,9.16666667 L16.6666667,3.33333333 L14.7083333,5.29166667 L14.7083333,5.29166667 Z" id="Shape"></path>
                    </g>
                </g>
            </g>
        </g>
    </g>
</svg>