<?xml version="1.0" encoding="UTF-8"?>
<svg width="15px" height="15px" viewBox="0 0 15 15" version="1.1" xmlns="http://www.w3.org/2000/svg" xmlns:xlink="http://www.w3.org/1999/xlink">
    <!-- Generator: Sketch 51.1 (57501) - http://www.bohemiancoding.com/sketch -->
    <title>Shape</title>
    <desc>Created with Sketch.</desc>
    <defs></defs>
    <g id="Page-1" stroke="none" stroke-width="1" fill="none" fill-rule="evenodd">
        <g id="Gmail-Desktop" transform="translate(-815.000000, -24.000000)" fill="#FFFFFF">
            <g id="//-header">
                <g id="search-bar" transform="translate(202.000000, 16.000000)">
                    <g id="ic_search_black_24px" transform="translate(611.000000, 6.000000)">
                        <g id="Group">
                            <path d="M12.2708333,11.0833333 L11.6454167,11.0833333 L11.42375,10.8695833 C12.1995833,9.96708333 12.6666667,8.79541667 12.6666667,7.52083333 C12.6666667,4.67875 10.3629167,2.375 7.52083333,2.375 C4.67875,2.375 2.375,4.67875 2.375,7.52083333 C2.375,10.3629167 4.67875,12.6666667 7.52083333,12.6666667 C8.79541667,12.6666667 9.96708333,12.1995833 10.8695833,11.42375 L11.0833333,11.6454167 L11.0833333,12.2708333 L15.0416667,16.22125 L16.22125,15.0416667 L12.2708333,11.0833333 L12.2708333,11.0833333 Z M7.52083333,11.0833333 C5.54958333,11.0833333 3.95833333,9.49208333 3.95833333,7.52083333 C3.95833333,5.54958333 5.54958333,3.95833333 7.52083333,3.95833333 C9.49208333,3.95833333 11.0833333,5.54958333 11.0833333,7.52083333 C11.0833333,9.49208333 9.49208333,11.0833333 7.52083333,11.0833333 L7.52083333,11.0833333 Z" id="Shape"></path>
                        </g>
                    </g>
                </g>
            </g>
        </g>
    </g>
</svg>