<?xml version="1.0" encoding="UTF-8"?>
<svg width="20px" height="20px" viewBox="0 0 20 20" version="1.1" xmlns="http://www.w3.org/2000/svg" xmlns:xlink="http://www.w3.org/1999/xlink">
    <!-- Generator: Sketch 51.1 (57501) - http://www.bohemiancoding.com/sketch -->
    <title>Shape</title>
    <desc>Created with Sketch.</desc>
    <defs></defs>
    <g id="Page-1" stroke="none" stroke-width="1" fill="none" fill-rule="evenodd">
        <g id="Gmail-Desktop" transform="translate(-978.000000, -129.000000)" fill="#6E6E6E">
            <g id="//-tabs" transform="translate(202.000000, 118.000000)">
                <g id="Updates" transform="translate(758.000000, 0.000000)">
                    <g id="ic_info_black_24px" transform="translate(16.000000, 9.000000)">
                        <g id="Group">
                            <path d="M12,2 C6.48,2 2,6.48 2,12 C2,17.52 6.48,22 12,22 C17.52,22 22,17.52 22,12 C22,6.48 17.52,2 12,2 L12,2 Z M13,17 L11,17 L11,11 L13,11 L13,17 L13,17 Z M13,9 L11,9 L11,7 L13,7 L13,9 L13,9 Z" id="Shape"></path>
                        </g>
                    </g>
                </g>
            </g>
        </g>
    </g>
</svg>